<svg width="500" height="500" viewBox="0 0 500 500" fill="none" xmlns="http://www.w3.org/2000/svg">
<path d="M180.601 320.277C179.304 318.241 181.343 311.515 182.453 312.329C183.563 313.143 186.899 315.588 187.083 317.628C187.267 319.664 190.602 323.536 193.009 324.759C195.416 325.982 208.566 325.982 210.789 325.168C213.012 324.354 218.197 319.869 219.494 317.219C220.791 314.57 222.287 314.375 225.336 313.963C228.385 313.551 231.328 316.657 227.169 319.179C223.013 321.701 218.568 326.186 213.383 327.204C208.198 328.223 191.344 329.04 188.38 327.817C185.415 326.595 180.601 320.277 180.601 320.277Z" fill="#66757F"/>
<rect width="500" height="500" fill="url(#paint0_linear_259_24)"/>
<path d="M177.294 233.432C177.294 233.432 189.765 230 192.882 230C196 230 208.471 233.432 208.471 233.432C208.471 233.432 220.941 247.152 224.059 247.152C224.059 247.152 230.294 247.152 236.529 254.012C242.765 260.872 242.765 274.592 242.765 274.592C242.765 274.592 249 288.312 249 295.172C249 302.032 245.882 308.892 242.765 312.323C239.647 315.755 227.176 319.183 227.176 319.183C227.176 319.183 224.059 326.043 217.824 329.475C199.118 332.906 186.647 329.475 186.647 329.475L180.412 322.615C180.412 322.615 158.588 319.183 155.471 319.183C152.353 319.183 143 305.463 143 302.032C143 298.6 143 288.312 146.118 278.02C152.353 267.728 155.471 264.3 155.471 264.3C155.471 264.3 152.353 257.443 155.471 250.583C161.706 243.723 174.176 240.292 174.176 240.292L177.294 233.432Z" fill="#66757F"/>
<path d="M178.561 234.494C178.561 234.494 189.887 231.234 192.821 231.234C195.755 231.234 208.378 234.902 208.378 234.902C208.378 234.902 219.521 247.741 222.454 247.741C222.454 247.741 228.808 247.598 234.679 254.058C240.549 260.519 240.004 271.989 240.004 271.989C240.004 271.989 245.874 284.905 245.874 291.362C245.874 297.82 242.94 304.281 240.007 307.512C237.073 310.742 225.335 313.969 225.335 313.969C225.335 313.969 222.401 320.427 216.531 323.658C198.925 326.888 187.187 323.658 187.187 323.658L181.32 317.2C181.32 317.2 160.781 313.969 157.847 313.969C154.914 313.969 146.109 301.051 146.109 297.82C146.109 294.59 146.109 284.901 149.043 275.213C154.914 265.525 157.847 262.298 157.847 262.298C157.847 262.298 154.144 257.053 157.077 250.592C162.945 244.134 175.412 240.811 175.412 240.811L178.561 234.494Z" fill="#99AAB5"/>
<path d="M179.697 237.119C179.697 237.119 190.291 234.271 193.034 234.271C195.778 234.271 207.585 237.473 207.585 237.473C207.585 237.473 218.004 248.681 220.747 248.681C220.747 248.681 226.689 248.557 232.18 254.194C237.67 259.831 237.162 269.845 237.162 269.845C237.162 269.845 238.019 283.396 240.242 283.805C245.885 284.839 240.763 295.657 238.019 298.476C235.275 301.295 216.164 302.552 216.164 302.552C216.164 302.552 216.838 311.347 211.348 314.169C194.883 316.987 187.763 314.954 187.763 314.954L182.275 309.317C182.275 309.317 168.901 296.238 166.157 296.238C163.414 296.238 149.344 295.22 149.344 292.401C149.344 289.582 149.344 281.123 152.087 272.667C157.574 264.211 160.321 261.389 160.321 261.389C160.321 261.389 156.857 256.808 159.601 251.171C165.088 245.534 176.748 242.632 176.748 242.632L179.697 237.119Z" fill="#CCD6DD"/>
<path d="M159.482 260.371L171.894 266.28L165.409 270.966L152.084 272.664L159.482 260.371Z" fill="#99AAB5"/>
<path d="M144.85 290.328C144.85 290.328 148.369 302.35 149.295 303.777C150.221 305.204 162.075 304.185 163.555 304.185C165.036 304.185 172.26 308.058 172.26 308.058C172.26 308.058 162.63 310.707 159.297 310.298C155.964 309.89 147.3 308.297 146.518 306.018C145.735 303.738 144.85 290.328 144.85 290.328Z" fill="#66757F"/>
<path d="M162.632 250.797C164.16 250.303 174.669 245.703 176.892 245.907C179.115 246.111 188.561 251.611 186.339 253.447C184.116 255.282 171.891 253.855 168.375 253.855C164.858 253.855 159.483 251.816 162.632 250.797ZM155.224 275.454C156.169 273.631 168.746 273.009 168.746 273.009C168.746 273.009 185.045 279.734 185.045 280.753C185.045 281.771 170.23 288.701 168.746 288.902C167.262 289.104 154.482 276.881 155.224 275.454ZM191.71 287.884C191.417 286.272 198.008 276.472 199.305 275.658C200.602 274.844 218.011 270.155 220.972 270.155C223.934 270.155 233.381 277.286 233.568 278.713C233.752 280.14 225.234 289.921 223.011 290.735C220.789 291.552 192.265 290.939 191.71 287.884ZM208.38 260.984C207.679 262.698 225.05 265.06 226.902 264.243C228.754 263.429 232.087 257.925 231.532 256.499C230.977 255.072 225.605 250.995 222.827 251.404C220.047 251.816 210.045 256.91 208.38 260.984ZM194.675 235.922C196.228 236.263 206.528 238.776 207.825 240.812C209.122 242.849 201.715 249.166 199.676 249.37C197.637 249.575 183.748 240.812 182.267 239.794C180.786 238.776 191.894 235.309 194.675 235.922Z" fill="#E1E8ED"/>
<path d="M202.846 305.563C201.284 304.704 200.701 297.598 201.505 297.008C202.31 296.417 209.817 297.598 211.56 297.892C213.303 298.186 223.893 297.301 224.966 298.483C226.038 299.664 228.623 303.992 229.524 306.594C230.425 309.199 224.564 308.806 222.285 308.216C220.006 307.625 204.991 306.744 202.846 305.563ZM179.111 258.536C181.147 258.536 189.668 258.331 191.52 258.536C193.372 258.74 199.298 264.444 196.52 265.057C193.743 265.67 186.335 267.707 185.222 267.911C184.109 268.115 180.037 264.243 178.74 263.225C177.447 262.203 176.892 258.536 179.111 258.536ZM202.45 252.831C203.479 251.136 207.451 250.59 207.635 252.423C207.819 254.258 206.709 258.331 204.486 258.127C202.263 257.926 200.966 255.276 202.45 252.831ZM191.707 295.827C193.555 295.6 197.078 295.214 197.078 296.845C197.078 298.476 194.856 299.086 192.262 298.882C189.671 298.681 190.039 296.031 191.707 295.827Z" fill="#99AAB5"/>
<path d="M184.488 273.211C186.107 271.787 191.712 271.579 193.009 272.192C194.306 272.805 191.528 277.083 189.86 277.287C188.192 277.488 182.637 274.839 184.488 273.211Z" fill="#E1E8ED"/>
<path d="M221.53 304.387C223.379 303.879 227.828 303.369 227.641 304.795C227.457 306.222 225.605 308.872 224.121 308.668C222.637 308.463 220.049 304.795 221.53 304.387ZM209.493 318.653C211.538 318.305 214.678 316.616 214.494 318.653C214.31 320.689 212.087 323.339 209.677 322.933C207.27 322.525 207.086 319.058 209.493 318.653Z" fill="#66757F"/>
<path d="M287.608 262.001C285.124 261.978 282.651 262.337 280.276 263.067H280.158L270.694 266.03C265.281 267.702 260.544 271.069 257.18 275.636C253.816 280.203 252 285.731 252 291.408V311.44C252 326.065 263.906 337.997 278.5 337.997H316.001C320.616 338.1 325.083 335.387 326.885 330.884C328.025 328.023 327.862 325.014 326.768 322.347C329.176 321.109 331.064 319.049 332.091 316.539C332.649 315.117 332.916 313.596 332.876 312.068C332.836 310.54 332.489 309.036 331.856 307.646H346.643C352.87 307.646 358 302.505 358 296.264C358 290.023 352.87 284.882 346.643 284.882H340.847L342.384 284.408C348.343 282.598 351.761 276.152 349.955 270.181C348.15 264.209 341.718 260.783 335.759 262.593L303.815 272.434C303.524 271.655 303.169 270.902 302.755 270.181C300.862 267.009 297.031 263.424 290.921 262.354C289.785 262.164 288.661 262.012 287.608 262.001ZM339.545 269.707C341.021 269.87 342.282 270.894 342.74 272.434C343.361 274.479 342.176 276.555 340.135 277.177L314.23 285L315.528 289.268V292.47H346.643C348.786 292.47 350.429 294.117 350.429 296.264C350.429 298.411 348.786 300.058 346.643 300.058H321.68L311.742 296.146C310.356 295.573 308.866 295.29 307.366 295.316L305.356 279.783L338.008 269.824C338.507 269.68 339.03 269.64 339.545 269.707ZM287.491 269.824C288.214 269.824 288.967 269.824 289.622 269.942C293.688 270.655 295.256 272.434 296.247 274.092C297.236 275.754 297.307 276.938 297.307 276.938V277.177L300.506 301.598C300.538 301.719 300.576 301.838 300.62 301.955C300.735 302.422 300.756 302.908 300.681 303.383C300.606 303.858 300.437 304.314 300.184 304.722C299.931 305.131 299.598 305.485 299.206 305.763C298.814 306.041 298.371 306.237 297.902 306.341C296.675 306.637 296.054 306.473 295.418 306.105C294.782 305.734 293.999 304.948 293.408 303.26L288.676 284.882C288.529 284.329 288.26 283.817 287.888 283.383C287.515 282.949 287.05 282.605 286.526 282.377C286.003 282.149 285.434 282.043 284.864 282.066C284.293 282.089 283.736 282.241 283.232 282.511L276.963 285.948C276.527 286.189 276.142 286.513 275.832 286.903C275.521 287.293 275.291 287.741 275.153 288.22C275.016 288.7 274.975 289.202 275.032 289.698C275.089 290.193 275.244 290.673 275.487 291.108C275.726 291.544 276.05 291.929 276.438 292.239C276.827 292.55 277.273 292.781 277.75 292.918C278.228 293.056 278.728 293.097 279.222 293.04C279.716 292.984 280.193 292.83 280.628 292.588L282.52 291.522L286.193 305.514C286.225 305.633 286.263 305.751 286.306 305.866C287.328 308.803 289.074 311.159 291.515 312.627C293.51 313.826 295.831 314.285 298.14 314.05C296.902 315.207 295.933 316.623 295.301 318.197C294.47 320.251 294.263 322.506 294.704 324.678C295.146 326.851 296.218 328.844 297.784 330.409H278.5C268.002 330.409 259.571 321.96 259.571 311.44V291.404C259.571 283.057 264.985 275.724 272.939 273.265L282.403 270.42C283.172 270.181 285.333 269.824 287.491 269.824ZM308.078 303.021C308.358 303.067 308.623 303.021 308.903 303.142L322.982 308.833C324.962 309.63 325.909 311.705 325.114 313.69C324.315 315.678 322.123 316.626 320.143 315.826L306.064 310.256C305.859 310.18 305.769 310.002 305.591 309.899C307.14 307.937 308.013 305.523 308.078 303.021ZM305.712 318.671C306.211 318.671 306.745 318.716 307.249 318.91L312.333 320.925L317.304 322.939L317.777 323.061C319.757 323.857 320.703 326.054 319.908 328.038C319.647 328.714 319.194 329.298 318.605 329.72C318.017 330.141 317.318 330.381 316.596 330.409H316.475C315.952 330.427 315.43 330.346 314.938 330.17L304.409 325.902C303.94 325.72 303.512 325.445 303.15 325.095C302.788 324.744 302.5 324.325 302.301 323.862C302.103 323.398 301.998 322.9 301.994 322.395C301.99 321.891 302.087 321.391 302.278 320.925C302.461 320.471 302.733 320.058 303.078 319.712C303.424 319.366 303.835 319.093 304.288 318.91C304.74 318.729 305.226 318.648 305.712 318.671Z" fill="black"/>
<path d="M209 209.361C209.017 209.379 209.033 209.398 209.049 209.417C209.054 209.423 209.06 209.428 209.066 209.434C209.041 209.407 209.035 209.4 209 209.361ZM209.149 209.179C209.143 209.402 209.211 209.563 209.229 209.611C213.072 214.017 217.249 215.884 221.706 220.062C226.142 224.221 230.394 230.595 233.999 243.37L244.109 250.864C244.379 251.064 244.599 251.324 244.751 251.624C244.903 251.923 244.984 252.255 244.987 252.591L245.095 264.826L243.093 268.368L271.829 269L269.807 265.479V251.67C269.807 251.351 269.877 251.035 270.012 250.746C270.148 250.457 270.345 250.202 270.59 249.998C274.514 246.737 278.279 245.17 280.15 240.85L295 192.499C294.871 189.49 294.516 187.088 293.664 185.597C292.938 184.328 291.872 183.454 289.684 182.957C289.131 184.273 287.297 188.63 284.92 194.333C283.563 197.586 282.209 200.849 281.201 203.31C280.697 204.54 280.279 205.572 279.995 206.292C279.887 206.564 279.781 206.837 279.679 207.111C279.66 207.161 279.657 207.172 279.648 207.2C279.653 207.237 279.673 207.272 279.485 207.657C279.369 207.897 276.945 208.788 276.944 208.788C276.944 208.788 275.498 207.428 275.448 207.228C275.296 206.616 275.388 206.51 275.405 206.389C275.412 206.34 275.417 206.328 275.423 206.295C275.427 206.264 275.431 206.224 275.44 206.141C275.463 205.927 275.497 205.58 275.539 205.133C275.622 204.238 275.737 202.932 275.874 201.355C276.148 198.201 276.506 193.959 276.861 189.694C277.215 185.429 277.567 181.141 277.828 177.894C277.958 176.27 278.066 174.906 278.14 173.938C278.177 173.455 278.206 173.069 278.224 172.805C278.232 172.698 278.236 172.626 278.24 172.564C278.098 170.646 277.537 169.648 276.951 169.097C276.355 168.539 275.616 168.308 274.676 168.356C272.828 168.45 270.669 170.008 270.189 171.529L266.256 201.676C266.187 202.205 265.926 202.69 265.523 203.038C265.12 203.387 264.603 203.573 264.072 203.562C263.54 203.552 263.031 203.345 262.643 202.981C262.254 202.617 262.012 202.122 261.964 201.59C261.964 201.59 261.216 193.297 260.44 184.896C260.051 180.695 259.655 176.467 259.342 173.239C259.185 171.625 259.049 170.26 258.946 169.28C258.894 168.791 258.85 168.396 258.818 168.124C258.803 167.999 258.771 167.848 258.753 167.758C258.01 165.129 257.032 163.854 256.34 163.379C255.634 162.895 255.119 162.899 254.266 163.254C252.562 163.965 250.478 166.939 250.349 168.865L249.47 202.704C249.456 203.236 249.247 203.745 248.884 204.134C248.52 204.522 248.027 204.762 247.499 204.808C246.97 204.855 246.443 204.704 246.018 204.385C245.593 204.066 245.3 203.601 245.194 203.078C245.194 203.078 243.707 195.722 242.184 188.154C241.423 184.37 240.652 180.534 240.053 177.537C239.454 174.539 239.049 172.51 238.945 171.907C238.551 169.619 237.679 168.566 236.746 168.015C235.813 167.465 234.615 167.375 233.344 167.775C231.12 168.475 229.069 170.538 229.009 173.362C229 173.782 229.034 174.203 229.11 174.616L229.117 174.662L234.796 210.573C237.287 212.384 238.611 214.069 240.31 216.348C254.008 216.835 260.839 219.349 264.447 222.937C268.151 226.621 267.909 231.23 268.265 232.661L264.075 233.714C263.346 230.789 263.819 228.418 261.408 226.021C258.998 223.624 253.096 221.01 239.138 220.636C238.812 220.627 238.492 220.544 238.203 220.393C237.913 220.243 237.661 220.028 237.466 219.766C235.235 216.771 234.52 215.617 231.734 213.721L212.912 205.156C210.994 205.413 210.108 206.365 209.578 207.48C209.292 208.083 209.161 208.733 209.149 209.178L209.149 209.179Z" fill="black"/>
<defs>
<linearGradient id="paint0_linear_259_24" x1="346" y1="81" x2="95.5" y2="250" gradientUnits="userSpaceOnUse">
<stop stop-color="#A735FF"/>
<stop offset="1" stop-color="#642099"/>
</linearGradient>
</defs>
</svg>
